<?xml version="1.0" standalone="no"?>
<!DOCTYPE svg PUBLIC "-//W3C//DTD SVG 20010904//EN"
 "http://www.w3.org/TR/2001/REC-SVG-20010904/DTD/svg10.dtd">
<svg version="1.0" xmlns="http://www.w3.org/2000/svg"
 width="1475.000000pt" height="1475.000000pt" viewBox="0 0 1475.000000 1475.000000"
 preserveAspectRatio="xMidYMid meet">
<metadata>
Created by potrace 1.11, written by Peter Selinger 2001-2013
</metadata>
<g transform="translate(0.000000,1475.000000) scale(0.100000,-0.100000)"
fill="#000000" stroke="none">
<path d="M7039 14746 c-2 -2 -66 -7 -143 -11 -76 -3 -144 -8 -150 -10 -6 -2
-45 -6 -86 -10 -124 -9 -283 -31 -530 -71 -349 -56 -870 -198 -1255 -342 -131
-49 -139 -52 -160 -62 -11 -5 -58 -24 -105 -43 -132 -54 -188 -80 -435 -203
-1312 -652 -2409 -1708 -3133 -3015 -123 -223 -205 -392 -337 -694 -225 -514
-429 -1244 -509 -1825 -22 -159 -31 -228 -41 -345 -4 -38 -8 -81 -10 -94 -26
-166 -26 -1123 0 -1293 2 -13 6 -57 10 -98 8 -90 11 -114 36 -300 11 -80 21
-152 24 -160 2 -8 7 -35 10 -60 4 -25 22 -124 41 -220 226 -1137 727 -2217
1453 -3135 176 -223 325 -389 551 -615 252 -253 316 -313 494 -461 16 -13 34
-29 40 -34 89 -82 447 -345 666 -487 814 -533 1789 -913 2729 -1063 53 -9 107
-18 121 -20 46 -8 264 -34 335 -41 39 -3 84 -8 100 -10 220 -26 1027 -26 1240
0 17 2 64 7 105 11 61 5 261 32 470 62 54 7 352 69 472 97 640 149 1360 438
1943 780 336 198 760 497 1025 725 14 12 50 43 80 69 163 140 487 458 625 612
664 745 1137 1532 1474 2454 153 416 287 938 346 1341 4 22 8 47 10 55 6 20
43 318 50 405 4 39 8 80 10 92 27 170 27 1050 0 1298 -3 22 -9 85 -15 140 -14
132 -19 171 -36 290 -8 55 -17 118 -20 140 -13 90 -88 450 -125 600 -261 1040
-742 2009 -1411 2843 -231 288 -614 688 -878 918 -563 492 -1149 867 -1850
1186 -427 195 -1064 393 -1545 482 -85 16 -326 56 -365 60 -25 3 -54 7 -65 10
-11 2 -54 7 -95 11 -41 3 -82 8 -90 10 -8 2 -60 7 -115 10 -55 4 -109 9 -120
12 -25 6 -829 15 -836 9z"/>
</g>
</svg>
